<?xml version="1.0" encoding="UTF-8"?>
<svg id="Layer_1" xmlns="http://www.w3.org/2000/svg" viewBox="0 0 123.78 126.83">
  <defs>
    <style>
      .cls-1 {
        fill: #4fbddb;
      }

      .cls-2 {
        fill: #485ca3;
      }

      .cls-3 {
        fill: #84ca7a;
      }

      .cls-4 {
        fill: #4ab65d;
      }

      .cls-5 {
        fill: #5d6dc9;
      }

      .cls-6 {
        fill: #202b6b;
      }

      .cls-7 {
        fill: #4e99dd;
      }

      .cls-8 {
        fill: #167c23;
      }

      .cls-9 {
        fill: #8094e8;
      }

      .cls-10 {
        fill: #299939;
      }

      .cls-11 {
        fill: #8ce87c;
      }

      .cls-12 {
        fill: #3d7bbe;
      }

      .cls-13 {
        fill: #2bd0f7;
      }

      .cls-14 {
        fill: #77c1f7;
      }

      .cls-15 {
        fill: #454fa0;
      }
    </style>
  </defs>
  <g>
    <polygon class="cls-9" points="123.78 58.16 112.21 51.64 113.89 50.58 123.78 58.16"/>
    <polygon class="cls-5" points="113.89 50.58 112.21 51.64 111.46 49.39 113.89 50.58"/>
    <polygon class="cls-5" points="111.46 49.39 112.21 51.64 107.18 49.88 111.46 49.39"/>
    <polygon class="cls-5" points="111.46 49.39 107.18 49.88 105.01 46.24 111.46 49.39"/>
    <polygon class="cls-15" points="105.01 46.24 107.18 49.88 99.79 47.32 105.01 46.24"/>
    <polygon class="cls-5" points="105.01 46.24 99.79 47.32 97.09 42.37 105.01 46.24"/>
    <polygon class="cls-15" points="97.09 42.37 99.79 47.32 94.14 46.58 94.14 44.2 97.09 42.37"/>
    <polygon class="cls-5" points="92.74 37.04 97.09 42.37 88.67 36.83 88.95 32.69 92.74 37.04"/>
    <polygon class="cls-12" points="97.09 42.37 94.14 44.2 87.37 42.05 97.09 42.37"/>
    <polygon class="cls-6" points="97.09 42.37 87.37 42.05 84.18 38.9 89.29 39.21 97.09 42.37"/>
    <polygon class="cls-7" points="97.09 42.37 89.29 39.21 86.29 39.47 88.67 36.83 97.09 42.37"/>
    <polygon class="cls-8" points="94.14 44.2 94.14 46.58 90.78 51.07 87.69 46.58 94.14 44.2"/>
    <polygon class="cls-10" points="94.14 44.2 87.69 46.58 80.11 42.37 87.37 42.05 94.14 44.2"/>
    <polygon class="cls-10" points="87.69 46.58 90.78 51.07 87.97 62.58 80.11 53.74 87.69 46.58"/>
    <polygon class="cls-7" points="88.95 32.69 88.67 36.83 81.65 36.41 88.95 32.69"/>
    <polygon class="cls-1" points="88.95 32.69 81.65 36.41 84.6 31.29 88.95 32.69"/>
    <polygon class="cls-1" points="88.67 36.83 86.29 39.47 81.65 36.41 88.67 36.83"/>
    <polygon class="cls-4" points="80.11 53.74 87.97 62.58 80.11 66.68 73.66 58.65 80.11 53.74"/>
    <polygon class="cls-8" points="87.97 62.58 84.04 72.26 80.11 66.68 87.97 62.58"/>
    <polygon class="cls-11" points="87.69 46.58 80.11 53.74 80.11 42.37 87.69 46.58"/>
    <polygon class="cls-4" points="87.37 42.05 80.11 42.37 81.65 36.41 86.29 39.47 87.37 42.05"/>
    <polygon class="cls-13" points="84.6 31.29 81.65 36.41 77.94 32.55 84.6 31.29"/>
    <polygon class="cls-10" points="80.11 66.68 84.04 72.26 77.03 80.68 80.11 66.68"/>
    <polygon class="cls-1" points="77.94 32.55 81.65 36.41 72.4 37.88 77.94 32.55"/>
    <polygon class="cls-1" points="81.65 36.41 80.11 42.37 71.28 45.46 81.65 36.41"/>
    <polygon class="cls-7" points="81.65 36.41 71.28 45.46 72.4 37.88 81.65 36.41"/>
    <polygon class="cls-3" points="80.11 42.37 80.11 53.74 73.66 58.65 71.28 45.46 80.11 42.37"/>
    <polygon class="cls-11" points="73.66 58.65 80.11 66.68 72.04 70.57 73.66 58.65"/>
    <polygon class="cls-3" points="80.11 66.68 77.03 80.68 72.04 70.57 80.11 66.68"/>
    <polygon class="cls-7" points="72.04 70.57 77.03 80.68 61.59 79.83 72.04 70.57"/>
    <polygon class="cls-2" points="77.03 80.68 58.79 90.07 61.59 79.83 77.03 80.68"/>
    <polygon class="cls-2" points="72.68 101.72 74.22 110.14 67.76 108.31 62.88 98.37 72.68 101.72"/>
    <polygon class="cls-12" points="71.28 45.46 73.66 58.65 70.15 55.56 68.11 50.89 71.28 45.46"/>
    <polygon class="cls-9" points="73.66 58.65 72.04 70.57 66.08 61.87 70.15 55.56 73.66 58.65"/>
    <polygon class="cls-7" points="72.68 101.72 62.88 98.37 58.79 90.07 72.68 101.72"/>
    <polygon class="cls-5" points="66.08 61.87 72.04 70.57 61.59 79.83 56.82 68.05 66.08 61.87"/>
    <polygon class="cls-4" points="68.11 50.89 70.15 55.56 55 51.07 66.22 46.58 68.11 50.89"/>
    <polygon class="cls-3" points="70.15 55.56 66.08 61.87 55 51.07 70.15 55.56"/>
    <polygon class="cls-2" points="67.76 108.31 68.33 115.33 62.15 113.16 58.23 103.58 67.76 108.31"/>
    <polygon class="cls-12" points="62.88 98.37 67.76 108.31 55 95.69 62.88 98.37"/>
    <polygon class="cls-7" points="67.76 108.31 58.23 103.58 55 95.69 67.76 108.31"/>
    <polygon class="cls-5" points="64.55 33.11 66.22 46.58 55 38.68 64.55 33.11"/>
    <polygon class="cls-3" points="66.22 46.58 55 51.07 39 27.42 46.72 32.86 55 38.68 66.22 46.58"/>
    <polygon class="cls-4" points="66.08 61.87 56.82 68.05 55 51.07 66.08 61.87"/>
    <polygon class="cls-15" points="64.55 33.1 64.55 33.11 55 38.68 46.72 32.86 46.72 20.48 64.55 33.1"/>
    <polygon class="cls-5" points="63.13 21.6 64.55 33.1 46.72 20.48 60.33 15.1 63.13 21.6"/>
    <polygon class="cls-2" points="62.88 98.37 55 95.69 58.79 90.07 62.88 98.37"/>
    <polygon class="cls-2" points="58.23 103.58 62.15 113.16 60.8 123.24 53.39 117.87 54.55 101.76 58.23 103.58"/>
    <polygon class="cls-12" points="56.82 68.05 61.59 79.83 50.55 85.2 56.82 68.05"/>
    <polygon class="cls-1" points="61.59 79.83 58.79 90.07 50.55 85.2 61.59 79.83"/>
    <polygon class="cls-9" points="60.33 15.1 46.72 20.48 50.37 5.47 60.33 15.1"/>
    <polygon class="cls-12" points="58.79 90.07 55 95.69 49.66 99.33 50.55 85.2 58.79 90.07"/>
    <polygon class="cls-14" points="55 95.69 58.23 103.58 54.55 101.76 55 95.69"/>
    <polygon class="cls-2" points="55 51.07 56.82 68.05 47.7 66.22 55 51.07"/>
    <polygon class="cls-12" points="56.82 68.05 50.55 85.2 45.18 73.52 56.82 68.05"/>
    <polygon class="cls-1" points="56.82 68.05 45.18 73.52 47.7 66.22 56.82 68.05"/>
    <polygon class="cls-15" points="39 27.42 55 51.07 27.78 42.09 39 27.42"/>
    <polygon class="cls-15" points="55 51.07 47.7 66.22 40.96 55.56 55 51.07"/>
    <polygon class="cls-1" points="55 95.69 54.55 101.76 52.36 100.67 55 95.69"/>
    <polygon class="cls-1" points="55 95.69 52.36 100.67 49.66 99.33 55 95.69"/>
    <polygon class="cls-5" points="55 51.07 40.96 55.56 27.78 42.09 55 51.07"/>
    <polygon class="cls-12" points="54.55 101.76 53.39 117.87 50.6 103.99 52.36 100.67 54.55 101.76"/>
    <polygon class="cls-2" points="50.6 103.99 53.39 117.87 47.7 126.83 44.06 116.31 50.6 103.99"/>
    <polygon class="cls-14" points="52.36 100.67 50.6 103.99 49.66 99.33 52.36 100.67"/>
    <polygon class="cls-12" points="49.66 99.33 50.6 103.99 44.06 116.31 49.66 99.33"/>
    <polygon class="cls-2" points="45.18 73.52 50.55 85.2 44.06 88.95 45.18 73.52"/>
    <polygon class="cls-2" points="50.55 85.2 49.66 99.33 44.62 96.39 44.06 88.95 50.55 85.2"/>
    <polygon class="cls-7" points="49.66 99.33 44.06 116.31 44.36 105.31 49.66 99.33"/>
    <polygon class="cls-1" points="49.66 99.33 44.36 105.31 44.62 96.39 49.66 99.33"/>
    <polygon class="cls-7" points="44.06 88.95 44.62 96.39 35.78 99.33 44.06 88.95"/>
    <polygon class="cls-12" points="44.62 96.39 44.36 105.31 37.13 113.46 39.71 105.23 44.62 96.39"/>
    <polygon class="cls-2" points="44.62 96.39 39.71 105.23 34.09 106.77 44.62 96.39"/>
    <polygon class="cls-12" points="44.62 96.39 34.09 106.77 35.78 99.33 44.62 96.39"/>
    <polygon class="cls-2" points="37.13 113.46 44.36 105.31 44.06 116.31 39.35 122.49 37.13 113.46"/>
    <polygon class="cls-15" points="24.13 11.78 39 27.42 18.24 24.7 24.13 11.78"/>
    <polygon class="cls-5" points="39 27.42 27.78 42.09 18.24 24.7 39 27.42"/>
    <polygon class="cls-5" points="24.13 11.78 18.24 24.7 6.46 12.07 24.13 11.78"/>
    <polygon class="cls-9" points="24.13 11.78 6.46 12.07 0 0 24.13 11.78"/>
  </g>
  <polygon class="cls-15" points="89.29 39.21 90.14 42.14 97.09 42.37 89.29 39.21"/>
</svg>